<svg width="31" height="30" viewBox="0 0 29 42" fill="none" xmlns="http://www.w3.org/2000/svg">
<path d="M16.0702 9L16.431 12H25.5661L24.8083 18H14.0747L13.3697 12H13.3782L13.0173 9L13.0131 8.96353L12.1566 1.67494L11.9597 0H0V3H9.26042L9.96542 9H1.31451L5.15119 39.3721C5.2438 40.0972 5.60029 40.764 6.15392 41.2477C6.70754 41.7315 7.42034 41.9989 8.15887 42H22.1556C22.8942 41.999 23.6071 41.7316 24.1608 41.2479C24.7145 40.7641 25.0711 40.0973 25.1637 39.3721L29 9H16.0702ZM4.74839 12H10.3179L11.0229 18H5.50625L4.74839 12ZM22.157 39H8.15877L5.88518 21H11.3754L12.6972 32.25H15.7491L14.4272 21H24.4297L22.157 39Z" fill="#6A4029"/>
</svg>
