<svg width="38" height="36" viewBox="0 0 38 36" fill="none" xmlns="http://www.w3.org/2000/svg">
<path d="M36.5385 14.3934H35.0093C34.6421 10.459 32.7966 6.8017 29.8349 4.13892C26.8732 1.47615 23.0089 0 19 0C14.9911 0 11.1268 1.47615 8.16509 4.13892C5.20337 6.8017 3.35791 10.459 2.99067 14.3934H1.46154C1.07391 14.3934 0.702166 14.5451 0.428075 14.8153C0.153983 15.0854 0 15.4518 0 15.8338C0.00642164 19.2594 0.962957 22.6181 2.76616 25.5466C4.56937 28.4751 7.15062 30.8621 10.2308 32.4493V33.1191C10.2308 33.8832 10.5387 34.6159 11.0869 35.1562C11.6351 35.6965 12.3786 36 13.1538 36H24.8462C25.6214 36 26.3649 35.6965 26.9131 35.1562C27.4613 34.6159 27.7692 33.8832 27.7692 33.1191V32.4493C30.8494 30.8621 33.4306 28.4751 35.2338 25.5466C37.037 22.6181 37.9936 19.2594 38 15.8338C38 15.4518 37.846 15.0854 37.5719 14.8153C37.2978 14.5451 36.9261 14.3934 36.5385 14.3934ZM32.0698 14.3934H22.6758C24.4477 11.7734 27.1285 9.88033 30.2155 9.06916C31.2248 10.6872 31.8581 12.5055 32.0698 14.3934ZM27.3088 5.79216C27.6438 6.06224 27.9647 6.34732 28.2716 6.64742C24.381 7.9963 21.1658 10.7685 19.2923 14.3898H13.9029C14.8164 11.8662 16.4981 9.68207 18.7183 8.13583C20.9386 6.58959 23.5891 5.75663 26.3077 5.75074C26.642 5.75074 26.9763 5.76695 27.3088 5.79216ZM19 2.86986C20.1728 2.87091 21.3402 3.02653 22.4712 3.3326C19.7169 4.00596 17.1915 5.38296 15.1494 7.32482C13.1072 9.26668 11.6205 11.7048 10.8391 14.3934H5.93019C6.29274 11.226 7.8253 8.30081 10.2357 6.17557C12.6461 4.05033 15.7658 2.87365 19 2.86986ZM25.6975 30.2382C25.4426 30.3537 25.2267 30.539 25.0758 30.7721C24.9248 31.0052 24.8451 31.2761 24.8462 31.5526V33.1191H13.1538V31.5526C13.1549 31.2761 13.0752 31.0052 12.9242 30.7721C12.7733 30.539 12.5574 30.3537 12.3025 30.2382C9.73223 29.0726 7.51829 27.2611 5.88289 24.9856C4.24748 22.7101 3.24815 20.0507 2.98519 17.2743H35.0093C34.7469 20.0501 33.7484 22.7092 32.114 24.9846C30.4796 27.26 28.2667 29.0718 25.6975 30.2382Z" fill="#6A4029"/>
</svg>

