<svg width="23" height="25" viewBox="-1 0 40 38" fill="none" xmlns="http://www.w3.org/2000/svg">
<path d="M2 36H15.886M15.886 36H16.114M15.886 36C12.1928 35.9699 8.66102 34.4817 6.06012 31.8594C3.45921 29.2372 1.99988 25.6934 2 22V13.846C2 12.826 2.826 12 3.846 12H28.154C29.174 12 30 12.826 30 13.846V14M16.114 36H30M16.114 36C19.8072 35.9699 23.339 34.4817 25.9399 31.8594C28.5408 29.2372 30.0001 25.6934 30 22M30 14H33C34.3261 14 35.5979 14.5268 36.5355 15.4645C37.4732 16.4021 38 17.6739 38 19C38 20.3261 37.4732 21.5979 36.5355 22.5355C35.5979 23.4732 34.3261 24 33 24H30V22M30 14V22M24 2L22 6M18 2L16 6M12 2L10 6" stroke="#6A4029" stroke-width="3" stroke-linecap="round" stroke-linejoin="round"/>
</svg>
